<svg xmlns="http://www.w3.org/2000/svg" viewBox="0 0 512 512" style="enable-background:new 0 0 512 512" xml:space="preserve"><path style="fill:#ff7945" d="M327.655 35.492c-2.171-8.721-11.301-15.857-20.288-15.857H204.632c-8.987 0-18.117 7.135-20.288 15.857L172.02 84.997 256 117.678l83.98-32.681-12.325-49.505z"/><path style="fill:#1f1a78" d="M19.064 402.77h85.962v89.6H19.064zM406.975 402.77h85.962v89.6h-85.962z"/><path style="fill:#ffd83d" d="M503.83 306.312c0-5.991-2.625-15.142-5.839-20.197l-21.831-34.38-33.618-135.026c-4.347-17.441-22.604-31.711-40.579-31.711H110.036c-17.974 0-36.232 14.271-40.579 31.711L35.84 251.735l-21.831 34.38c-3.214 5.055-5.839 14.205-5.839 20.197l55.852 30.502L8.17 367.316v57.235h135.419L256 391.816l112.411 32.735H503.83v-57.235l-55.852-30.502 55.852-30.502z"/><path style="fill:#fff" d="M419.746 251.735c17.528 0 30.395-16.464 26.16-33.472l-23.484-94.327c-2.458-9.86-13.947-18.839-24.105-18.839H113.684c-10.159 0-21.648 8.98-24.104 18.836l-23.486 94.331c-4.234 17.009 8.632 33.472 26.16 33.472h327.493v-.001z"/><path style="fill:#ff7945" d="M77.094 293.458c16.842 0 30.502 16.526 30.502 36.929 0 20.391-13.661 36.929-30.502 36.929H8.17v-73.859h68.924zM503.83 293.458v76.037h-68.924c-16.842 0-30.502-17.027-30.502-38.019 0-21.005 13.661-38.019 30.502-38.019h68.924z"/><path style="fill:#5d8ae1" d="m346.624 370.029 21.787 54.522H143.589l21.787-54.522z"/><path d="M69.522 259.908h372.955c4.513 0 8.17-3.658 8.17-8.17s-3.657-8.17-8.17-8.17H69.522a8.17 8.17 0 0 0 0 16.34z"/><path d="m504.886 281.735-21.123-33.258-7.912-31.781h17.084c4.513 0 8.17-3.658 8.17-8.17s-3.657-8.17-8.17-8.17h-21.152l-21.314-85.618c-5.291-21.258-26.598-37.91-48.503-37.91h-55.6l-10.783-43.309c-3.079-12.365-15.472-22.053-28.216-22.053H204.634c-12.743 0-25.137 9.687-28.217 22.053l-10.781 43.309h-55.6c-21.905 0-43.212 16.652-48.504 37.91l-21.317 85.618H19.064c-4.513 0-8.17 3.658-8.17 8.17s3.657 8.17 8.17 8.17h17.084l-7.912 31.781-21.122 33.258C3.059 288.12 0 298.64 0 306.205v118.346a8.17 8.17 0 0 0 8.17 8.17h2.723v59.643a8.17 8.17 0 0 0 8.17 8.17h85.963a8.17 8.17 0 0 0 8.17-8.17v-35.132c0-4.512-3.657-8.17-8.17-8.17s-8.17 3.658-8.17 8.17v26.962H27.234v-51.472H368.38l.028.002.046-.002h116.311v51.472h-69.622v-26.962a8.17 8.17 0 0 0-8.17-8.17 8.17 8.17 0 0 0-8.17 8.17v35.132a8.17 8.17 0 0 0 8.17 8.17h85.963a8.17 8.17 0 0 0 8.17-8.17v-59.643h2.723a8.17 8.17 0 0 0 8.17-8.17V306.205c.001-7.565-3.058-18.085-7.113-24.47zM192.272 37.466c1.259-5.056 7.151-9.66 12.361-9.66h102.734c5.209 0 11.102 4.605 12.36 9.66l9.799 39.361H182.475l9.797-39.361zM16.34 306.205c0-4.459 2.177-11.946 4.567-15.709l21.833-34.378a8.183 8.183 0 0 0 1.032-2.406l33.614-135.026c3.445-13.832 18.395-25.517 32.648-25.517h229.914l.025.002.035-.002h61.957c14.253 0 29.204 11.686 32.647 25.517l33.614 135.026a8.16 8.16 0 0 0 1.032 2.406l21.833 34.378c2.39 3.763 4.567 11.25 4.567 15.709v110.176H373.94l-19.734-49.379a8.17 8.17 0 0 0-7.587-5.139H165.38a8.17 8.17 0 0 0-7.587 5.139l-19.734 49.379H16.34V306.205zm340.002 110.176H155.658l15.257-38.177h170.172l15.255 38.177z"/><path d="M40.851 375.482h30.743c24.355 0 44.17-19.814 44.17-44.17 0-24.355-19.814-44.17-44.17-44.17h-24.71a8.17 8.17 0 0 0-8.17 8.17 8.17 8.17 0 0 0 8.17 8.17h24.71c15.346 0 27.83 12.485 27.83 27.83 0 15.346-12.484 27.83-27.83 27.83H40.851a8.17 8.17 0 0 0-8.17 8.17 8.17 8.17 0 0 0 8.17 8.17zM396.236 331.312c0 24.356 19.815 44.17 44.17 44.17h30.743a8.17 8.17 0 0 0 8.17-8.17 8.17 8.17 0 0 0-8.17-8.17h-30.743c-15.346 0-27.83-12.484-27.83-27.83 0-15.345 12.485-27.83 27.831-27.83h24.709a8.17 8.17 0 0 0 8.17-8.17 8.17 8.17 0 0 0-8.17-8.17h-24.709c-24.356 0-44.171 19.814-44.171 44.17zM298.165 44.146h-84.331c-4.513 0-8.17 3.658-8.17 8.17s3.657 8.17 8.17 8.17h84.331c4.513 0 8.17-3.658 8.17-8.17s-3.657-8.17-8.17-8.17z"/></svg>