<svg xmlns="http://www.w3.org/2000/svg" viewBox="0 0 511.999 511.999" style="enable-background:new 0 0 511.999 511.999" xml:space="preserve"><path style="fill:#36c8e3" d="m239.421 410.598-73.047 34.22v38.541l73.047-21.431zM272.396 410.598l73.047 34.22v38.541l-73.047-21.431z"/><path style="fill:#2a8cbd" d="m312.245 429.266-39.849-18.668v51.33l33.257 9.758zM187.272 435.028l-20.898 9.79v38.541l20.898-6.13z"/><path style="fill:#ff5948" d="m279.702 179.534 199.222 93.332v58.45l-199.222-58.45z"/><path style="fill:#d44a3c" d="m315.79 196.441-36.088-16.907v93.332l36.088 10.588z"/><path style="fill:#ff5948" d="M232.297 179.534 33.075 272.866v58.45l199.222-58.45z"/><path style="fill:#d44a3c" d="m53.973 263.075-20.898 9.791v58.45l20.898-6.131z"/><path style="fill:#e9f2ff" d="M216.926 58.433v328.876l12.215 92.854c1.698 12.908 12.149 23.183 25.145 23.951 14.21.84 26.482-9.433 28.314-23.362l12.292-93.443V58.433c0-21.53-17.453-50.596-38.983-50.596-21.531 0-38.983 29.067-38.983 50.596z"/><path style="fill:#b9d7ff" d="m250.038 480.164-12.215-92.854V58.433c0-17.909 12.081-41.016 28.534-48.288-3.327-1.47-6.828-2.308-10.449-2.308-21.53 0-38.983 29.067-38.983 50.596v328.876l12.215 92.854c1.698 12.908 12.149 23.183 25.145 23.951a26.895 26.895 0 0 0 12.131-2.09c-8.706-3.738-15.085-12.029-16.378-21.86z"/><path style="fill:#ffd359" d="M193.938 405.183c-12.695 0-22.988-10.292-22.988-22.988v-49.221a4.18 4.18 0 0 1 4.18-4.18h37.616a4.18 4.18 0 0 1 4.18 4.18v49.221c0 12.696-10.293 22.988-22.988 22.988z"/><path style="fill:#db9840" d="M191.848 382.194v-49.221a4.18 4.18 0 0 1 4.18-4.18H175.13a4.18 4.18 0 0 0-4.18 4.18v49.221c0 12.695 10.292 22.988 22.988 22.988 3.764 0 7.313-.91 10.449-2.514-7.442-3.804-12.539-11.541-12.539-20.474z"/><path style="fill:#36c8e3" d="M276.11 66.355v14.408a2.09 2.09 0 0 1-2.783 1.972L256.6 76.863a2.08 2.08 0 0 0-1.384 0l-16.727 5.872a2.09 2.09 0 0 1-2.783-1.972V66.355c0-.775.429-1.488 1.116-1.849l18.111-9.539a2.09 2.09 0 0 1 1.948 0l18.111 9.539a2.09 2.09 0 0 1 1.118 1.849z"/><path style="fill:#ffd359" d="M216.926 351.086H170.95v-18.111a4.18 4.18 0 0 1 4.18-4.18h37.616a4.18 4.18 0 0 1 4.18 4.18v18.111zM317.879 405.183c-12.695 0-22.988-10.292-22.988-22.988v-49.221a4.18 4.18 0 0 1 4.18-4.18h37.616a4.18 4.18 0 0 1 4.18 4.18v49.221c0 12.696-10.291 22.988-22.988 22.988z"/><path style="fill:#db9840" d="M315.79 382.194v-49.221a4.18 4.18 0 0 1 4.18-4.18h-20.898a4.18 4.18 0 0 0-4.18 4.18v49.221c0 12.695 10.292 22.988 22.988 22.988 3.764 0 7.313-.91 10.449-2.514-7.441-3.804-12.539-11.541-12.539-20.474z"/><path style="fill:#ffd359" d="M340.867 351.086h-45.976v-18.111a4.18 4.18 0 0 1 4.18-4.18h37.616a4.18 4.18 0 0 1 4.18 4.18v18.111z"/><path d="M486.922 306.885v-34.021a7.836 7.836 0 0 0-4.515-7.097l-179.646-84.101V147.33a7.839 7.839 0 0 0-7.842-7.837 7.839 7.839 0 0 0-7.842 7.837v130.064c0 .031-.001.063 0 .094V386.796l-4.116 31.271-.011.09-8.105 61.573c-.884 6.715-5.256 12.214-11.093 14.87v-84.002c0-4.329-3.511-7.837-7.842-7.837s-7.842 3.508-7.842 7.837v83.996c-5.895-2.74-10.254-8.492-11.169-15.453l-12.156-92.345V58.433c0-22.023 17.558-42.759 31.167-42.759 13.609 0 31.167 20.736 31.167 42.759v46.579a7.839 7.839 0 0 0 7.842 7.837 7.839 7.839 0 0 0 7.842-7.837V58.433c0-12.366-4.811-26.536-12.868-37.902C280.505 7.292 268.437 0 255.909 0s-24.597 7.292-33.983 20.53c-8.057 11.366-12.868 25.535-12.868 37.902v123.326l-52.006 24.346a7.834 7.834 0 0 0-3.774 10.422 7.842 7.842 0 0 0 10.428 3.772l45.352-21.231v42.935l-168.297 54.1v-18.255l79.144-37.048a7.835 7.835 0 0 0 3.775-10.422c-1.837-3.919-6.506-5.605-10.428-3.772l-83.659 39.162a7.839 7.839 0 0 0-4.516 7.098V331.317a7.839 7.839 0 0 0 10.05 7.519l173.931-50.993v33.115h-36.073c-6.631 0-12.025 5.391-12.025 12.016V382.195c0 16.997 13.837 30.824 30.845 30.824a30.714 30.714 0 0 0 19.638-7.073l1.126 8.558-49.578 23.211a7.837 7.837 0 0 0-4.515 7.097v38.546a7.839 7.839 0 0 0 10.05 7.519l52.087-15.27.735 5.579c2.217 16.837 15.874 29.77 32.475 30.752.688.04 1.371.061 2.052.061 17.284 0 32.24-12.92 34.519-30.224l.812-6.168 52.09 15.271a7.852 7.852 0 0 0 6.908-1.245 7.839 7.839 0 0 0 3.142-6.274v-38.546a7.837 7.837 0 0 0-4.516-7.097l-49.581-23.209.937-7.117a30.686 30.686 0 0 0 17.737 5.629c17.009 0 30.845-13.828 30.845-30.824v-49.22c0-6.626-5.394-12.016-12.025-12.016h-33.982v-33.166l54.536 15.987c.738.216 1.48.32 2.211.32a7.845 7.845 0 0 0 7.521-5.633 7.836 7.836 0 0 0-5.317-9.726l-58.952-17.282v-13.055l168.477 54.161v8.285l-64.921-19.03c-4.153-1.213-8.513 1.162-9.732 5.314a7.837 7.837 0 0 0 5.317 9.727l74.97 21.974a7.844 7.844 0 0 0 6.908-1.247 7.836 7.836 0 0 0 3.141-6.273v-24.359c.002-.021.002-.045.002-.071zM40.761 320.851v-8.284l168.295-54.101v13.043L40.761 320.851zm135.882 15.781h30.323v6.617h-30.323v-6.617zm15.161 60.714c-8.36 0-15.161-6.797-15.161-15.151v-23.273h30.323v23.272c0 8.355-6.802 15.152-15.162 15.152zm-17.644 75.548v-23.096l40.556-18.987 3.827 29.073-44.383 13.01zm163.501-23.097v23.096l-44.386-13.012 3.826-29.07 40.56 18.986zm-19.74-52.451c-8.36 0-15.161-6.797-15.161-15.151v-23.273h30.323v23.272c0 8.355-6.802 15.152-15.162 15.152zm15.162-60.714v6.617H302.76v-6.617h30.323zm-30.322-94.691v-42.964l168.477 78.871v18.255l-168.477-54.162z"/><path d="M248.067 125.388v241.601c0 4.329 3.511 7.837 7.842 7.837s7.842-3.508 7.842-7.837V125.388c0-4.329-3.511-7.837-7.842-7.837s-7.842 3.509-7.842 7.837zM274.027 90.689a9.953 9.953 0 0 0 5.751-1.828 9.94 9.94 0 0 0 4.188-8.098V66.355a9.902 9.902 0 0 0-5.305-8.782l-18.121-9.537a9.925 9.925 0 0 0-9.261-.001l-18.13 9.541a9.904 9.904 0 0 0-5.299 8.779v14.408a9.942 9.942 0 0 0 4.188 8.098 9.96 9.96 0 0 0 9.036 1.269l14.833-5.206 14.836 5.207c1.07.374 2.18.558 3.284.558zm-5.745-18.034-9.084-3.188a9.978 9.978 0 0 0-6.58.001l-9.082 3.187v-2.831l12.374-6.512 12.374 6.512v2.831h-.002z"/></svg>