<svg xmlns="http://www.w3.org/2000/svg" viewBox="0 0 512 512" style="enable-background:new 0 0 512 512" xml:space="preserve"><path style="fill:#85c8eb" d="M135.739 127.72h226.627v311.953H135.739z"/><path style="fill:#e7f3f7" d="M202.655 392.128h93.777v47.557h-93.777z"/><path style="fill:#b0bbbf" d="M165.489 70.171h167.128v57.56H165.489z"/><path style="fill:#c5d5dd" d="M123.074 439.674h251.958v31.388H123.074z"/><path style="fill:#e7f3f7" d="M100.255 471.062h297.499v31.388H100.255z"/><path style="fill:#36cc6b" d="M482.975 328.904a24.54 24.54 0 0 0 1.922-9.55c0-13.602-11.028-24.63-24.632-24.63-13.602 0-24.63 11.027-24.63 24.63 0 3.388.684 6.615 1.922 9.552-5.361 6.163-8.659 14.5-8.659 23.687 0 18.974 14.045 34.358 31.367 34.358 17.325 0 31.369-15.384 31.369-34.358 0-9.187-3.296-17.525-8.659-23.689z"/><path style="fill:#b0e046" d="M62.16 349.314a24.54 24.54 0 0 0 1.922-9.55c0-13.602-11.027-24.63-24.632-24.63-13.602 0-24.63 11.027-24.63 24.63 0 3.388.684 6.615 1.922 9.552-5.359 6.163-8.658 14.5-8.658 23.687 0 18.974 14.045 34.358 31.367 34.358 17.325 0 31.369-15.384 31.369-34.358-.001-9.187-3.297-17.524-8.66-23.689z"/><path style="fill:#36cc6b" d="M120.261 338.693a24.54 24.54 0 0 0 1.922-9.55c0-13.602-11.027-24.63-24.632-24.63-13.602 0-24.63 11.027-24.63 24.63 0 3.388.684 6.615 1.922 9.552-4.098 4.71-6.984 10.693-8.119 17.352 2.601 5.004 4.094 10.785 4.094 16.955a37.72 37.72 0 0 1-.542 6.338c5.396 10.388 15.585 17.399 27.275 17.399 17.325 0 31.369-15.385 31.369-34.358.001-9.186-3.297-17.523-8.659-23.688z"/><path style="fill:#b0e046" d="M428.9 352.592c0-3.053.372-6.008 1.055-8.826a35.515 35.515 0 0 0-.874-1.051 24.54 24.54 0 0 0 1.922-9.55c0-13.602-11.027-24.63-24.632-24.63-13.602 0-24.63 11.027-24.63 24.63 0 3.388.684 6.615 1.922 9.552-5.361 6.163-8.659 14.5-8.659 23.687 0 18.974 14.045 34.358 31.367 34.358 14.535 0 26.757-10.832 30.317-25.526-4.845-6.046-7.788-13.967-7.788-22.644z"/><path style="fill:#36cc6b" d="M495.467 462.588c-2.223 0-4.349.383-6.333 1.084-.371-16.48-13.834-29.727-30.4-29.727-14.942 0-27.359 10.778-29.923 24.984a24.265 24.265 0 0 0-17.081-7c-1.79 0-3.535.203-5.217.568-4.622-10.902-15.412-18.553-27.999-18.553a30.268 30.268 0 0 0-17.762 5.731h14.272v31.389h22.723v31.388h106.168v-37.873a18.893 18.893 0 0 0-8.448-1.991zM123.074 471.065v-22.293a26.077 26.077 0 0 0-3.408-.23c-1.91 0-3.773.217-5.566.608-4.931-11.633-16.444-19.796-29.875-19.796-15.941 0-29.192 11.5-31.927 26.657-4.69-4.619-11.123-7.47-18.225-7.47-13.752 0-25.001 10.686-25.918 24.206l-.069-.017v29.721h92.167v-31.388h22.822v.002z"/><path style="fill:#231f20" d="M168.114 240.871a8.082 8.082 0 0 1-8.084-8.084v-70.315a8.082 8.082 0 0 1 8.084-8.084 8.082 8.082 0 0 1 8.084 8.084v70.314a8.084 8.084 0 0 1-8.084 8.085zM200.488 240.871a8.082 8.082 0 0 1-8.084-8.084v-70.315a8.082 8.082 0 0 1 8.084-8.084 8.082 8.082 0 0 1 8.084 8.084v70.314a8.083 8.083 0 0 1-8.084 8.085zM232.863 240.871a8.082 8.082 0 0 1-8.084-8.084v-70.315a8.082 8.082 0 0 1 8.084-8.084 8.082 8.082 0 0 1 8.084 8.084v70.314a8.083 8.083 0 0 1-8.084 8.085zM265.236 240.871a8.082 8.082 0 0 1-8.084-8.084v-70.315a8.082 8.082 0 0 1 8.084-8.084 8.082 8.082 0 0 1 8.084 8.084v70.314a8.083 8.083 0 0 1-8.084 8.085zM297.612 240.871a8.082 8.082 0 0 1-8.084-8.084v-70.315a8.082 8.082 0 0 1 8.084-8.084 8.083 8.083 0 0 1 8.084 8.084v70.314a8.084 8.084 0 0 1-8.084 8.085zM329.987 240.871a8.082 8.082 0 0 1-8.084-8.084v-70.315c0-4.466 3.618-8.084 8.084-8.084s8.084 3.618 8.084 8.084v70.314a8.084 8.084 0 0 1-8.084 8.085zM168.114 338.462a8.082 8.082 0 0 1-8.084-8.084v-70.315a8.082 8.082 0 0 1 8.084-8.084 8.082 8.082 0 0 1 8.084 8.084v70.315a8.084 8.084 0 0 1-8.084 8.084zM200.488 338.462a8.082 8.082 0 0 1-8.084-8.084v-70.315a8.082 8.082 0 0 1 8.084-8.084 8.082 8.082 0 0 1 8.084 8.084v70.315a8.082 8.082 0 0 1-8.084 8.084zM265.236 338.462a8.082 8.082 0 0 1-8.084-8.084v-70.315a8.082 8.082 0 0 1 8.084-8.084 8.082 8.082 0 0 1 8.084 8.084v70.315a8.082 8.082 0 0 1-8.084 8.084zM297.612 338.462a8.082 8.082 0 0 1-8.084-8.084v-70.315a8.082 8.082 0 0 1 8.084-8.084 8.083 8.083 0 0 1 8.084 8.084v70.315a8.084 8.084 0 0 1-8.084 8.084zM329.987 338.462a8.082 8.082 0 0 1-8.084-8.084v-70.315c0-4.466 3.618-8.084 8.084-8.084s8.084 3.618 8.084 8.084v70.315a8.084 8.084 0 0 1-8.084 8.084zM296.428 376.105h-93.777c-4.466 0-8.084-3.618-8.084-8.084s3.618-8.084 8.084-8.084h93.777a8.085 8.085 0 0 1 0 16.168z"/><path style="fill:#231f20" d="M507.525 457.347a26.782 26.782 0 0 0-11.593-2.839c-3.582-13.344-14.24-23.914-27.58-27.41v-32.964c17.889-4.024 31.368-21.119 31.368-41.542 0-9.16-2.717-17.954-7.725-25.228.656-2.602.988-5.282.988-8.011 0-18.038-14.676-32.714-32.716-32.714-14.644 0-27.072 9.674-31.231 22.967-5.884-5.662-13.871-9.156-22.664-9.156-18.038 0-32.714 14.676-32.714 32.714 0 2.728.332 5.409.988 8.012a43.115 43.115 0 0 0-4.201 7.689V127.722a8.083 8.083 0 0 0-8.084-8.084h-21.664V70.169a8.082 8.082 0 0 0-8.084-8.084h-75.529V9.546c0-4.466-3.618-8.084-8.084-8.084s-8.084 3.618-8.084 8.084v52.538h-75.429a8.082 8.082 0 0 0-8.084 8.084v49.47h-21.664a8.084 8.084 0 0 0-8.084 8.084v188.615c-4.993-11.693-16.606-19.91-30.103-19.91-15.096 0-27.83 10.281-31.584 24.207-5.948-8.222-15.614-13.586-26.516-13.586-18.037 0-32.714 14.676-32.714 32.714 0 2.728.332 5.409.988 8.012C2.717 355.049 0 363.843 0 373.003c0 20.423 13.479 37.519 31.368 41.543v26.03C15.145 441.868 1.894 454.664.194 470.974A8.118 8.118 0 0 0 0 472.733v29.721a8.082 8.082 0 0 0 8.084 8.084h495.832a8.082 8.082 0 0 0 8.084-8.084v-37.873a8.084 8.084 0 0 0-4.475-7.234zm-93.068-49.401c10.559-2.374 19.723-9.314 25.381-19.057a37.654 37.654 0 0 0 12.345 5.246v32.306c-11.895 2.043-22.066 9.531-27.567 20.06a32.26 32.26 0 0 0-10.159-2.536v-36.019zm30.552-82.179a16.443 16.443 0 0 1-1.287-6.413c0-9.123 7.422-16.546 16.546-16.546 9.124 0 16.548 7.422 16.548 16.546 0 2.227-.432 4.384-1.287 6.409a8.083 8.083 0 0 0 1.35 8.446c4.304 4.949 6.674 11.477 6.674 18.383 0 11.28-6.334 20.922-15.199 24.637v-24.637c0-4.466-3.618-8.084-8.084-8.084s-8.084 3.618-8.084 8.084v24.639c-3.512-1.472-6.627-3.873-9.107-6.939-.028-.036-.051-.074-.079-.111-1.935-2.414-3.436-5.181-4.454-8.154l-.009-.026a28.142 28.142 0 0 1-.651-2.201l-.03-.119a29.196 29.196 0 0 1-.457-2.197l-.031-.193c-.117-.73-.21-1.466-.273-2.209l-.014-.204a29.95 29.95 0 0 1-.094-2.286 29.701 29.701 0 0 1 .16-2.953 28.92 28.92 0 0 1 .21-1.617c.045-.289.089-.578.143-.864.907-4.847 3.008-9.324 6.161-12.949a8.084 8.084 0 0 0 1.348-8.442zm-55.244 22.256a8.086 8.086 0 0 0 1.35-8.444 16.443 16.443 0 0 1-1.287-6.413c0-9.123 7.422-16.546 16.546-16.546 9.124 0 16.548 7.422 16.548 16.546 0 2.227-.432 4.384-1.287 6.409a8.077 8.077 0 0 0-.222 5.69l-.004.031c-.088.55-.167 1.102-.236 1.658l-.024.185a46.998 46.998 0 0 0-.157 1.55c-.009.096-.019.191-.027.287a42.86 42.86 0 0 0-.089 1.477c-.005.114-.014.229-.019.343a44.73 44.73 0 0 0-.037 1.797 45.83 45.83 0 0 0 .148 3.545 45.137 45.137 0 0 0 .915 6.21 44.492 44.492 0 0 0 1.814 6.132c.33.876.679 1.741 1.061 2.586.067.149.141.292.209.44a54.045 54.045 0 0 0 1.438 2.832c.384.689.78 1.367 1.199 2.029.068.108.125.222.194.329-2.529 6.696-7.413 11.84-13.339 14.33v-24.619c0-4.466-3.618-8.084-8.084-8.084s-8.084 3.618-8.084 8.084v24.639c-8.865-3.715-15.199-13.357-15.199-24.639-.003-6.908 2.367-13.436 6.673-18.384zm8.524 59.923v23.391a38.425 38.425 0 0 0-19.774-5.478c-2.743 0-5.439.309-8.069.871v-42.827c5.13 12.144 15.418 21.249 27.843 24.043zm-267.131 55.035V447.76h235.784v15.221H131.158zm157.185-31.389h-31.259v-31.383h31.259v31.383zm-47.427 0h-30.181v-31.383h30.181v31.383zM173.57 78.254h150.959v41.386H173.57V78.254zm-29.747 57.553H354.279v295.785h-49.765v-39.467a8.082 8.082 0 0 0-8.084-8.084h-93.777a8.082 8.082 0 0 0-8.084 8.084v39.467h-50.744V135.807zm-16.168 253.965v41.82h-4.581c-3.261 0-6.062 1.934-7.342 4.714a40.4 40.4 0 0 0-10.096-8.91v-23.471c8.751-1.97 16.441-7.068 22.019-14.153zm-80.119 24.773c10.66-2.398 19.748-9.442 25.356-19.064 4.814 4.148 10.487 7.058 16.576 8.432v17.696a40.658 40.658 0 0 0-5.244-.338 40.505 40.505 0 0 0-36.156 22.181c-.188-.085-.38-.157-.57-.239.023-.247.038-.495.038-.747v-27.921zm34.758-78.988a16.443 16.443 0 0 1-1.287-6.413c0-9.123 7.422-16.546 16.546-16.546 9.124 0 16.548 7.422 16.548 16.546 0 2.227-.432 4.384-1.287 6.409a8.083 8.083 0 0 0 1.35 8.446c4.304 4.949 6.674 11.477 6.674 18.383 0 11.28-6.334 20.922-15.199 24.637v-24.637c0-4.466-3.618-8.084-8.084-8.084s-8.084 3.618-8.084 8.084v24.617c-4.291-1.809-8.081-5.028-10.811-9.297l.002-.027c.072-.705.127-1.415.167-2.13.004-.077.012-.154.016-.231.039-.765.06-1.536.06-2.312a46.631 46.631 0 0 0-.082-2.617 44.993 44.993 0 0 0-.141-1.84c-.009-.088-.015-.176-.025-.263a44.712 44.712 0 0 0-3.454-13.248c1.068-4.136 3.028-7.913 5.742-11.033a8.084 8.084 0 0 0 1.349-8.444zm-66.126 37.446c0-6.905 2.37-13.433 6.674-18.381a8.086 8.086 0 0 0 1.35-8.444 16.443 16.443 0 0 1-1.287-6.413c0-9.123 7.422-16.546 16.546-16.546 9.124 0 16.548 7.422 16.548 16.546 0 2.227-.432 4.384-1.287 6.409a8.083 8.083 0 0 0 1.35 8.446c1.482 1.704 2.717 3.607 3.723 5.636.146.293.291.586.426.885.239.531.463 1.07.67 1.618.122.323.23.653.341.983a29.61 29.61 0 0 1 .627 2.122c.144.579.276 1.163.385 1.754.045.241.082.484.121.727a29.946 29.946 0 0 1 .285 2.41c.056.744.096 1.493.096 2.247 0 1.642-.144 3.317-.427 4.979-.002.012-.001.024-.003.037-1.559 9.059-7.251 16.471-14.768 19.622v-24.637c0-4.466-3.618-8.084-8.084-8.084s-8.084 3.618-8.084 8.084v24.639c-8.868-3.716-15.202-13.358-15.202-24.639zm75.998 98.062v23.304H16.168v-20.562a7.89 7.89 0 0 0 .051-.511c.635-9.348 8.475-16.67 17.853-16.67 4.725 0 9.184 1.827 12.553 5.145a8.083 8.083 0 0 0 13.628-4.323c2.092-11.595 12.174-20.009 23.971-20.009a24.33 24.33 0 0 1 22.432 14.867 8.095 8.095 0 0 0 8.333 4.88v5.795H100.25a8.084 8.084 0 0 0-8.084 8.084zm16.169 8.085h281.33v15.22h-281.33v-15.22zm387.497 15.22h-89.998v-23.304a8.082 8.082 0 0 0-8.084-8.084h-14.639v-20.477a22.296 22.296 0 0 1 15.96 13.148 8.086 8.086 0 0 0 9.164 4.743c5.51-1.205 11.02.469 14.904 4.292a8.084 8.084 0 0 0 13.628-4.323c1.918-10.624 11.156-18.336 21.967-18.336 12.036 0 22.047 9.791 22.318 21.825a8.085 8.085 0 0 0 10.777 7.44 10.782 10.782 0 0 1 4.002-.615v23.691z"/><path style="fill:#231f20" d="M309.362 107.03H190.794c-4.466 0-8.084-3.618-8.084-8.084s3.618-8.084 8.084-8.084h118.568a8.082 8.082 0 0 1 8.084 8.084 8.084 8.084 0 0 1-8.084 8.084zM232.863 338.462a8.082 8.082 0 0 1-8.084-8.084v-70.315a8.082 8.082 0 0 1 8.084-8.084 8.082 8.082 0 0 1 8.084 8.084v70.315a8.083 8.083 0 0 1-8.084 8.084z"/><g style="opacity:.1"><path style="fill:#231f20" d="M173.552 73.826h17.246v47.492h-17.246z"/></g><g style="opacity:.1"><path style="fill:#231f20" d="M143.683 128.798h17.246v310.876h-17.246z"/></g><g style="opacity:.1"><path style="fill:#231f20" d="M131.158 442.466h17.246v25.664h-17.246z"/></g><g style="opacity:.1"><path style="fill:#231f20" d="M108.393 471.633h17.246v27.826h-17.246z"/></g></svg>