<svg xmlns="http://www.w3.org/2000/svg" xml:space="preserve" width="655.359" height="655.359" style="shape-rendering:geometricPrecision;text-rendering:geometricPrecision;image-rendering:optimizeQuality;fill-rule:evenodd;clip-rule:evenodd" viewBox="0 0 6.827 6.827"><defs><style>.fil28{fill:#202020}.fil34{fill:#3c3c3c}.fil30{fill:#414141}.fil7{fill:#545454}.fil29{fill:#616161}.fil32{fill:#636364}.fil10{fill:#aaa}.fil24{fill:#ababab}.fil26{fill:#bcbcbc}.fil15{fill:#c5c5c5}.fil41{fill:#cbcbcc}.fil16{fill:#d1d1d1}.fil42{fill:#d6d6d6}.fil18{fill:#dcdddd}.fil14{fill:#ddddde}.fil22{fill:#e1e1e2}.fil33{fill:#f8f8f9}.fil31{fill:#fff}.fil1,.fil5{fill:#2f2f2f;fill-rule:nonzero}.fil5{fill:#414141}</style></defs><g id="Layer_x0020_1"><g id="_340441576"><path id="_340450216" d="M1.506 5.35a.048.048 0 0 0 .072.063l1.501-1.72a.048.048 0 0 0-.072-.062L1.506 5.35z" style="fill:#8c8d8d;fill-rule:nonzero"/><path id="_340450528" class="fil1" d="m2.909 3.907.229-.262a.059.059 0 0 0-.089-.077l-.229.263.089.076z"/><path id="_340450168" d="m.908 4.767 1.047-1.206.072.063-.002-.002-.07-.06a.095.095 0 0 1 .004-.006l.002-.001v-.001a.211.211 0 0 1 .293-.014l-.063.072.002-.002.06-.07h.001a.099.099 0 0 1 .005.005l.419.363-.063.072.063-.072a.096.096 0 0 1 .004.14L1.488 5.425a.096.096 0 0 1-.14.004l-.419-.363c.087-.1.079-.09 0 0a.098.098 0 0 1-.005-.004L.922 5.06a.212.212 0 0 1-.014-.292c.151.13 0 0 0 0z" style="fill:#919191;fill-rule:nonzero"/><path id="_340450024" d="m.985 5.114 1.328-1.522c-.065-.056-.113-.11-.213-.103-.04.003-.086.011-.114.043L.898 4.78c-.073.083-.051.2.024.28.018.019.043.037.063.054z" style="fill:#8a8a8a"/><path id="_340450672" d="M1.283 5.37a.205.205 0 1 1 .31.27.205.205 0 1 1-.31-.27z" style="fill:#202020;fill-rule:nonzero"/><path id="_340450456" class="fil5" d="M1.368 5.444a.093.093 0 1 1 .14.122.093.093 0 1 1-.14-.122z"/><path id="_340450720" d="M1.418 5.488a.026.026 0 1 1 .04.034.026.026 0 1 1-.04-.034z" style="fill:#f0f0f0;fill-rule:nonzero"/><path id="_340450624" class="fil7" transform="scale(.8971) rotate(40.805 -6.302 4.589)" d="M0 0h.069v.316H0z"/><path id="_340449232" class="fil7" transform="scale(.8971) rotate(40.805 -4.457 5.274)" d="M0 0h.069v.316H0z"/><path id="_340449808" class="fil7" d="m1.622 4.338.14.117-.071.082-.14-.118z"/><g><path id="_340449544" d="M4.058 2.295a.41.41 0 0 0-.072-.306c-.061-.085-.178-.118-.29-.136-.137-.022-.237.479-.237.479-.438.09-.363.567-.387.908-.019.162.08.277.222.34a.572.572 0 0 0 .306.043c.124-.018.23-.082.27-.2.1-.298.135-.802.188-1.128z" style="fill:#3a3a3a;fill-rule:nonzero"/><path id="_340449424" d="M3.48 2.243 3.292 3.58c-.14-.063-.24-.178-.222-.34.025-.34-.05-.818.388-.908 0 0 .007-.036.02-.089z" style="fill:#2d2d2d"/><path id="_340449400" class="fil10" d="M3.084 2.897a1.16 1.16 0 0 1 .036-.244l.04.006-.035.244-.041-.006z"/><path id="_340449304" d="m3.71 2.851-.173-.031a.071.071 0 0 0-.083.057l-.062.347a.071.071 0 0 0 .057.082l.173.031a.071.071 0 0 0 .083-.057l.062-.346a.071.071 0 0 0-.057-.083z" style="fill:#797979"/><path id="_340449784" class="fil10" d="m3.71 2.851-.173-.031a.071.071 0 0 0-.083.057l-.02.107.314.056.02-.106a.071.071 0 0 0-.058-.083z"/><path id="_340449472" d="M3.835 1.759a.04.04 0 0 0-.048.028l-.014.057a.04.04 0 0 0 .029.048.04.04 0 0 0 .048-.029l.014-.056a.04.04 0 0 0-.03-.048z" style="fill:#2f2f2f"/><path id="_340448512" d="m3.864 1.879-.111-.028a.022.022 0 0 0-.027.017.022.022 0 0 0 .016.026l.111.028a.022.022 0 0 0 .027-.016.022.022 0 0 0-.016-.027z" style="fill:#565656"/><path id="_340448800" class="fil14" d="M4.733 3.221c.06.094.185.122.28.062.094-.06.033-.172-.028-.266l-.307-.634a.203.203 0 0 0-.342.218l.397.62z"/><path id="_340448680" class="fil5" d="M4.912 2.934z"/><path id="_340448920" class="fil14" d="M5.736 3.31a.037.037 0 0 0 .033.039l.156.01a.037.037 0 1 0 .006-.073l-.12-.01c-.021-.001-.073.013-.075.033z"/><path id="_340449160" class="fil14" d="M5.687 3.538a.038.038 0 0 0 .034.04l.159.012a.038.038 0 0 0 .006-.075l-.159-.011a.038.038 0 0 0-.04.034z"/><path id="_340448656" class="fil14" d="M5.73 3.385a.04.04 0 0 0 .036.043l.164.012a.04.04 0 1 0 .007-.08l-.165-.011a.04.04 0 0 0-.043.036z"/><path id="_340449088" class="fil14" d="M5.715 3.464a.04.04 0 0 0 .036.042l.165.012a.04.04 0 1 0 .007-.079l-.165-.012a.04.04 0 0 0-.043.037z"/><path id="_340448536" class="fil14" d="M5.832 3.278s-.071-.046-.091-.052c-.115-.003-.235.092-.242.176-.01.126.104.168.188.175l.053.004.092-.303z"/><path id="_340448728" class="fil15" d="M5.89 3.516h-.006l-.016-.004a3.94 3.94 0 0 0-.011-.001l-.013-.002-.026-.004L5.79 3.5a.514.514 0 0 0-.024-.003l-.023-.002.022.007a.518.518 0 0 0 .05.01l.028.004h.047z"/><path id="_340448584" class="fil15" d="m5.927 3.439-.022-.006-.022-.006-.025-.006a.614.614 0 0 0-.072-.01l.022.008a.62.62 0 0 0 .048.011l.026.005.023.003h.022z"/><path id="_340448128" class="fil15" d="m5.933 3.36-.022-.006-.022-.006-.026-.006a.614.614 0 0 0-.071-.01l.021.008c.013.003.03.008.048.011l.026.005.023.003h.023z"/><path id="_340448008" class="fil15" d="m5.832 3.278-.015-.004a.54.54 0 0 0-.034-.008l-.019-.003-.015-.002-.012-.002h-.004l.004.002.01.005.016.005a.2.2 0 0 0 .07.007z"/><path id="_340447936" class="fil14" d="M5.501 3.496c.149.016.099-.014.127-.092.027-.079.053-.107-.026-.134l-.68-.274c-.106-.037-.19-.027-.227.078-.037.106-.005.208.124.26.16.062.682.162.682.162z"/><path id="_340448440" class="fil16" d="M4.749 3.293a.202.202 0 0 0 .095.05.27.27 0 0 1-.095-.049z"/><path id="_340448320" d="m4.727 3.212-.162-.253.162.253z" style="fill:#515151"/><path id="_340447816" class="fil18" d="m5.32 3.46.038.007a12.304 12.304 0 0 1-.038-.007zm.09.057zm.005.002zm0 0zm0 0zm.001 0zm0 0zm.255.056.016.002.053.004-.053-.004a.333.333 0 0 1-.016-.002z"/><path id="_340447768" d="m5.744 3.496.02.006h.002a.518.518 0 0 0 .023.007h.003a.212.212 0 0 0 .024.005c.01 0 .019.002.028.003h.047l-.007-.002-.016-.003a3.94 3.94 0 0 0-.011-.001l-.013-.002-.026-.004L5.79 3.5a.514.514 0 0 0-.024-.003h-.002l-.021-.002z" style="fill:#bababb"/><path id="_340448272" class="fil16" d="m5.81 3.352.093.006-.092-.006H5.81zm.111.007h.004-.004z"/><path id="_340448200" d="m5.81 3.352.093.006-.01-.001-.082-.005zm.111.007H5.93 5.92z" style="fill:#c6c6c7"/><path id="_340447864" d="m5.893 3.357.01.001.018.001H5.933h-.001l-.039-.002z" style="fill:#b1b1b1"/><path id="_340447984" class="fil22" d="M4.598 3.532z"/><path id="_340447624" d="M4.598 3.532a.332.332 0 0 0 .002-.021v-.004l-.002.025z" style="fill:#181818"/><path id="_340447456" class="fil24" d="m4.494 2.855-.162-.253a.207.207 0 0 1 .349-.223l.117.242c-.096.096-.208.137-.304.234z"/><path id="_340446976" d="m4.711 3-.095-.088L4.4 2.71l.216.2.095.09z" style="fill:#4d4d4d"/><path id="_340447528" class="fil14" d="M4.535 5.206c-.03.094.021.12.117.167.096.046.165.028.212-.068l.28-.684a.193.193 0 0 0-.089-.257c-.096-.047-.155.01-.23.085-.143.144-.29.757-.29.757z"/><path id="_340446928" class="fil26" d="m4.582 5.031.063.024c.093.035.185.074.281.097l-.062.153c-.047.096-.116.114-.212.068-.096-.046-.147-.073-.117-.167 0 0 .018-.073.046-.175z"/><path id="_340447360" class="fil14" d="M4.745 4.563c.102.1.222.182.332.113.11-.07.122-.18.054-.29l-.543-.818c-.088-.139-.235-.094-.374-.007s-.174.19-.087.329l.618.673z"/><path id="_340447336" d="M3.962 3.538c.008-.007.615.018.623.028l.31.428c-.108.107-.304.334-.411.441l-.556-.478a.297.297 0 0 1 .034-.419z" style="fill:#393939"/><path id="_340447096" class="fil28" d="M4.508 5.199s-.023.074-.082.16c-.02.03-.025.08-.038.106-.052.012-.068.132-.06.153.009.035.183.07.293.031.077-.027.14-.001.225.025a.765.765 0 0 0 .346.027c.156-.02.124-.17.072-.21-.072-.032-.152-.034-.213-.044-.19-.03-.082-.132-.191-.197-.094.054-.176.082-.232.066-.085-.024-.075-.115-.12-.117z"/><path id="_340447240" class="fil29" d="M4.592 5.571a.502.502 0 0 1-.264.004c.006-.043.025-.102.06-.11.013-.025.018-.076.038-.106.059-.086.082-.16.082-.16.045.002.035.093.12.117.056.016.138-.012.232-.066.11.065.001.167.191.197.06.01.14.012.213.044.029.022.05.076.04.124a.214.214 0 0 1-.058.016.879.879 0 0 1-.396-.032c-.099-.03-.17-.059-.258-.028z"/><path id="_340446784" class="fil30" d="M4.378 5.47a.038.038 0 0 1 .01-.005c.013-.025.018-.076.038-.106.059-.086.082-.16.082-.16.045.002.035.093.12.117.056.016.138-.012.232-.066.11.065.056.167.245.197.061.01.087.012.16.044a.092.092 0 0 1 .019.022.169.169 0 0 1-.064.02.766.766 0 0 1-.345-.027c-.086-.026-.149-.051-.225-.024a.422.422 0 0 1-.272-.013z"/><path id="_340446760" class="fil28" d="M4.745 5.414c-.066.012-.153.03-.221.014a.257.257 0 0 1-.105-.057.102.102 0 0 1 .007-.012c.059-.086.082-.16.082-.16.045.002.035.093.12.117.055.016.135-.012.227-.064-.015.06-.043.149-.11.162z"/><path id="_340446904" class="fil31" d="M4.895 5.44a.022.022 0 0 0 .029.012l.074-.032a.022.022 0 1 0-.017-.04l-.074.032a.022.022 0 0 0-.012.029z"/><path id="_340446544" class="fil31" d="M4.856 5.381a.02.02 0 0 0 .026.01l.068-.028a.02.02 0 0 0-.016-.037l-.067.03a.02.02 0 0 0-.01.025z"/><path id="_340446352" class="fil31" d="M4.82 5.326a.02.02 0 0 0 .027.01l.067-.028A.02.02 0 0 0 4.9 5.27l-.068.03a.02.02 0 0 0-.01.025z"/><path id="_340446376" class="fil32" d="M5.067 5.44zm0 0a.227.227 0 0 0 0 0zm-.097-.055.01-.005-.01.005z"/><path id="_340446640" class="fil32" d="M5.009 5.39zm-.028-.01zm.008-.001zm-.029-.043zm-.026-.01zm.008-.002z"/><path id="_340446256" class="fil22" d="m4.892 5.274.007-.003-.007.003zm-.012-.01.265-.643-.265.643zm.285-.803zm0 0zm-.285-.452.014-.015-.014.015z"/><path id="_340446880" class="fil30" d="m4.843 5.295.049-.021a.195.195 0 0 0-.032-.024c-.002 0-.004.002-.005.003a.578.578 0 0 1-.012.042z"/><path id="_340446832" class="fil33" d="M4.915 5.454c.003 0 .006 0 .009-.002l.074-.032a.022.022 0 0 0 .011-.029.022.022 0 0 0-.028-.01l-.011.004-.063.027a.022.022 0 0 0 .008.042z"/><path id="_340446664" class="fil33" d="M4.875 5.393a.02.02 0 0 0 .007-.001l.068-.03h.002a.02.02 0 0 0 .008-.026.02.02 0 0 0-.018-.012.02.02 0 0 0-.008.002h-.002l-.065.03a.02.02 0 0 0 .008.037z"/><path id="_340445800" class="fil22" d="M4.925 5.282zm-.019-.013z"/><path id="_340445632" class="fil33" d="M4.839 5.338a.02.02 0 0 0 .008-.001l.067-.03a.02.02 0 0 0 .01-.026.02.02 0 0 0-.026-.01l-.006.003-.05.021-.011.005a.02.02 0 0 0 .008.038z"/><path id="_340445656" class="fil14" d="M3.096 4.828c-.085.05-.064.104-.023.202.041.099.105.13.204.09l.648-.336a.193.193 0 0 0 .103-.252c-.04-.098-.122-.096-.228-.089-.203.013-.704.385-.704.385z"/><path id="_340445536" class="fil26" d="M3.073 5.03c-.041-.098-.062-.152.023-.202 0 0 .107-.08.242-.166l.045.09c.037.074.072.149.113.22l.015.026-.234.122c-.099.04-.163.009-.204-.09z"/><path id="_340445584" class="fil14" d="M3.726 4.426c-.015.142-.005.287.117.33.121.044.217-.014.26-.136l.33-.895c.056-.154-.01-.18-.164-.235l-.002.02c-.155-.056-.337-.14-.393.015l-.148.901z"/><path id="_340445416" class="fil34" d="M3.164 4.784s-.076.016-.18.008c-.036-.003-.083.018-.111.02-.036-.04-.148.006-.162.024-.027.024.03.193.118.27.12.103.039.26.239.52.096.126.21.024.218-.041-.009-.079-.046-.15-.068-.207-.04-.105-.008-.134.026-.165.024-.023.05-.046.05-.1-.093-.054-.159-.11-.173-.167-.021-.086.063-.123.043-.162z"/><path id="_340446064" d="M2.882 5.04a.502.502 0 0 1-.134-.226c.04-.016.1-.03.125-.002.028-.002.075-.023.11-.02.105.008.18-.008.18-.008.021.039-.063.076-.042.162.014.057.08.113.173.168 0 .053-.026.076-.05.099-.034.031-.066.06-.026.165.022.057.06.128.068.207a.132.132 0 0 1-.088.096.212.212 0 0 1-.042-.043c-.23-.3-.136-.478-.274-.597z" style="fill:#727272"/><path id="_340445920" d="M2.864 4.805a.04.04 0 0 1 .009.007c.028-.002.075-.023.11-.02.105.008.18-.008.18-.008.021.039-.063.076-.042.162.014.057.08.113.173.168-.002.127-.117.132-.049.31.022.059.032.082.04.16a.09.09 0 0 1-.008.028.17.17 0 0 1-.05-.045c-.2-.26-.118-.416-.238-.52a.423.423 0 0 1-.125-.242z" style="fill:#555"/><path id="_340446112" class="fil34" d="M3.095 5.096c-.044-.052-.103-.118-.122-.185a.257.257 0 0 1-.003-.119h.014c.104.008.18-.008.18-.008.02.039-.064.076-.043.162.014.056.078.111.168.165-.058.017-.15.037-.194-.015z"/><path id="_340445488" class="fil31" d="M3.146 5.24a.022.022 0 0 0 .004.03l.065.048a.022.022 0 0 0 .026-.035l-.064-.048a.022.022 0 0 0-.03.005z"/><path id="_340444696" class="fil31" d="M3.178 5.176a.02.02 0 0 0 .004.028l.06.044a.02.02 0 1 0 .023-.032l-.059-.044a.02.02 0 0 0-.028.004z"/><path id="_340444936" class="fil31" d="M3.208 5.118a.02.02 0 0 0 .004.028l.06.044a.02.02 0 0 0 .023-.032l-.059-.044a.02.02 0 0 0-.028.004z"/><path id="_340445176" class="fil22" d="M3.28 5.606zm.003-.008zm.002-.01v-.003c-.008-.079-.018-.102-.04-.16.022.058.032.081.04.16v.004zm-.217.039zm0 0zm.171-.219zm0 0a.251.251 0 0 0 0 0zm.002-.125-.01-.006a.194.194 0 0 0 0 0l.01.006zm.024-.067-.002-.001.002.001zm.027-.104zm.313-.604-.073-.22.073.22zm-.267.154-.004.002.004-.002zm-.007.004-.003.002-.008.005-.004.003.015-.01zm-.015.01-.002.001h.002zm-.003.002-.006.004-.004.003a2.04 2.04 0 0 1 .01-.007zm-.012.008-.003.002.003-.002zm-.008.005a.157.157 0 0 0-.013.009 8.28 8.28 0 0 1 .013-.009zm-.014.01h-.002l-.01.007.012-.007zm-.436.418zm.418-.406a.794.794 0 0 1-.007.004l-.004.003h-.001l.012-.007zm-.016.01a.223.223 0 0 1-.003.002l-.004.003a.755.755 0 0 0-.007.005c-.002 0-.003.002-.005.003l-.003.002.022-.015zm-.025.018-.005.002-.005.004-.005.003a7.51 7.51 0 0 1 .015-.01zm-.016.01a1.598 1.598 0 0 0-.005.003l-.001.001.006-.004zm-.009.006-.004.003.004-.003zm-.007.005-.002.002.002-.002zm-.004.003-.003.002-.005.004c-.002 0-.003.002-.005.003l-.004.003a.632.632 0 0 0 .017-.012zm-.023.016-.002.002-.004.002.006-.004zm-.334.322zm.178-.31zm0 0zm0 0zm-.001 0zm0 0h-.001zm-.001 0zm0 0H3h.002zm-.003 0zm-.014 0zm0-.001h-.001zm-.001 0zm-.271.121c-.011-.037-.013-.067-.003-.077-.01.01-.008.04.003.077zm.102-.116h-.002.002zm-.096.032zm0 0zm-.01.007z"/><path id="_340445344" class="fil28" d="M3.244 5.654zm0 0a.127.127 0 0 1-.046.027.212.212 0 0 1-.042-.043c-.23-.3-.136-.478-.274-.597a.502.502 0 0 1-.134-.227.256.256 0 0 0 .008-.003.19.19 0 0 0-.036.018.05.05 0 0 0-.01.007c-.01.01-.007.04.004.077a.44.44 0 0 0 .112.19.169.169 0 0 0 .003.003.21.21 0 0 1 .014.013c.1.103.033.257.225.507.044.057.09.067.13.055a.127.127 0 0 0 .046-.027zm-.418-.858zm-.01 0h-.002l-.006.002.009-.001zm-.022.004a.236.236 0 0 1 0 0z"/><path id="_340444792" d="M3.249 5.65a.171.171 0 0 0 .014-.016l.001-.001a.097.097 0 0 0 .004-.005l.001-.002a.197.197 0 0 0 .003-.005l.001-.002.003-.005v-.002a.17.17 0 0 1-.049-.045c-.2-.26-.118-.416-.238-.52a.423.423 0 0 1-.125-.242.045.045 0 0 1 .005.004v-.001l-.002-.001a.046.046 0 0 0-.004-.003h-.002a.047.047 0 0 0-.005-.003h-.001a.06.06 0 0 0-.005-.002h-.002l-.006-.002H2.806A.24.24 0 0 0 2.8 4.8h-.006a.236.236 0 0 0-.013.004l-.008.003a.273.273 0 0 0-.025.008c.02.072.07.171.134.227.138.119.045.298.274.597a.212.212 0 0 0 .042.043.127.127 0 0 0 .046-.027.164.164 0 0 0 .005-.004zm.03-.044h.001zm.004-.008zm.002-.009zm-.412-.777-.001-.001z" style="fill:#757575"/><path id="_340445368" class="fil29" d="m3.277 5.612.002-.005v-.001h.001v-.001l.002-.004v-.003a.052.052 0 0 0 .002-.005v-.002a.036.036 0 0 0 .002-.006c-.009-.079-.019-.102-.04-.16a.251.251 0 0 1-.022-.103.022.022 0 0 1-.01-.004L3.15 5.27a.022.022 0 0 1 .027-.035l.055.041a.195.195 0 0 1 .011-.027h-.002l-.059-.045a.02.02 0 1 1 .024-.032l.057.043a.322.322 0 0 0 .012-.023.02.02 0 0 1-.004-.002l-.059-.044a.02.02 0 0 1-.008-.018c-.041.004-.083-.002-.109-.032-.044-.052-.103-.118-.122-.185a.257.257 0 0 1-.003-.119h.014c-.036-.003-.083.018-.111.02l-.001-.001a.041.041 0 0 0-.008-.006c.002.057.053.18.125.242.12.103.039.26.238.52a.169.169 0 0 0 .05.045zm.012-.458a.184.184 0 0 0 .005-.04l-.002-.002-.003-.001a.574.574 0 0 1-.043.01l.043.033z"/><path id="_340445296" class="fil30" d="M3.29 5.11c-.091-.053-.155-.108-.169-.164-.021-.086.063-.123.043-.162l-.028.004a.74.74 0 0 1-.13.005H3a.69.69 0 0 1-.015 0v-.001H2.97a.257.257 0 0 0 .003.119c.02.067.078.133.122.185.026.03.068.036.11.032a.02.02 0 0 1 .005-.012.02.02 0 0 1 .026-.002l.01.008a.574.574 0 0 0 .043-.011z"/><path id="_340444744" class="fil22" d="M3.244 5.316zm0 0 .001-.002a.022.022 0 0 0-.001.002z"/><path id="_340445056" class="fil33" d="M3.243 5.317v-.001l.002-.002a.022.022 0 0 0-.004-.03l-.01-.008-.054-.04a.022.022 0 1 0-.027.034l.065.048a.022.022 0 0 0 .028-.002z"/><path id="_340444984" class="fil33" d="m3.267 5.246.002-.002a.02.02 0 0 0-.004-.028l-.002-.001-.057-.043a.02.02 0 0 0-.024.032l.06.044.001.001a.02.02 0 0 0 .024-.003z"/><path id="_340445272" class="fil22" d="m3.297 5.188.002-.002a.02.02 0 0 0-.003.003h.001zm0 0z"/><path id="_340444480" class="fil33" d="m3.297 5.188.002-.002a.02.02 0 0 0-.004-.028l-.006-.004-.043-.032-.01-.008a.02.02 0 0 0-.024.032l.06.044a.02.02 0 0 0 .024-.001z"/><path id="_340444072" d="M4.056 2.3c-.01.107.102.132.227.144.125.012.155.137.166.03 0 0 .035-.329.044-.646.003-.107-.007-.18-.132-.193-.125-.012-.27.052-.27.16 0 .363-.035.505-.035.505z" style="fill:#cacaca"/><path id="_340444360" class="fil14" d="M4.09 1.883c-.01.104.201.3.365.305l.037-.002c.164.005.3-.125.305-.29l.009-.33c.023-.333-.126-.3-.29-.305l-.112.001a.297.297 0 0 0-.305.29l-.009.33z"/><path id="_340444552" class="fil28" d="M4.092 1.842c-.294-.598.133-.756.338-.721.622.026.353.28.373.302-.605-.124-.484.241-.596.25-.112.01-.037.13-.115.17z"/><path id="_340444240" class="fil14" d="M4.053 1.724a.1.1 0 1 0 .2 0 .1.1 0 0 0-.2 0z"/><path id="_340444456" class="fil18" d="M4.09 1.84zm-.015-.033z"/><path id="_340444432" d="M4.09 1.885zm0 0v-.001zm0-.001zm0 0zm0 0v-.001zm0-.001zm.002-.04a.65.65 0 0 0 0 0z" style="fill:#a5a5a6"/><path id="_340443904" d="M3.92 3.407 3.877 3.4c.022-.163.183-1.243.201-1.276.005-.017.064.107.39.15.09.092.148.201.187.343.046.167-.04.87-.043.909-.255-.035-.429-.074-.692-.119z" style="fill:#959595"/><path id="_340443880" class="fil7" d="m3.641 4.077.187-.522a1.13 1.13 0 0 0 .054-.191l.11.03c.14.036.282.07.423.107.079.02.114.036.194.05-.004.055-.001.05-.001.05l-.149.225a.33.33 0 0 1-.021.046l-.23.541c-.132-.093-.434-.243-.567-.336z"/><path id="_340444504" class="fil16" d="m3.952 4.26-.01-.005.01.006z"/><path id="_340443472" class="fil41" d="M3.744 4.24a5.578 5.578 0 0 1-.021.005l-.011.003.008-.002.021-.006h.003z"/><path id="_340443184" class="fil18" d="M3.532 4.288a.36.36 0 0 0-.004 0h.004z"/><path id="_340443328" class="fil42" d="M3.532 4.288z"/><path id="_340443280" class="fil41" d="M3.712 4.248a2.326 2.326 0 0 0 0 0z"/><path id="_340443376" class="fil30" d="m4.607 3.577.005-.056-.724-.202-.011.081s.489.13.73.177z"/><path id="_340443736" class="fil14" d="M3.418 2.574a.205.205 0 0 0-.108.269c.044.104.152.061.256.017l.699-.201a.205.205 0 0 0-.161-.378l-.686.293z"/><path id="_340443352" class="fil24" d="m3.901 2.367.203-.086a.205.205 0 0 1 .16.378l-.365.11.002-.402z"/><path id="_340443208" class="fil14" d="M2.97 3.308c-.039.064-.004.104.06.143.065.04.082.06.121-.004l.356-.548c.053-.087.074-.163-.013-.216-.087-.053-.183-.043-.252.062-.086.13-.271.563-.271.563z"/><path id="_340443712" class="fil14" d="M3.104 3.547a.033.033 0 0 0-.041.023l-.037.118a.033.033 0 0 0 .064.019l.037-.118a.033.033 0 0 0-.023-.042z"/><path id="_340443640" class="fil14" d="M2.91 3.462a.034.034 0 0 0-.043.023l-.037.12a.034.034 0 1 0 .066.02l.037-.12a.034.034 0 0 0-.023-.043z"/><path id="_340443832" class="fil14" d="M3.038 3.528a.036.036 0 0 0-.045.024l-.039.126a.036.036 0 0 0 .07.02l.038-.126a.036.036 0 0 0-.024-.044z"/><path id="_340442392" class="fil14" d="M2.97 3.5a.036.036 0 0 0-.044.025l-.039.126a.036.036 0 0 0 .07.02l.038-.126a.036.036 0 0 0-.024-.044z"/><path id="_340442464" class="fil14" d="M3.11 3.63s.04-.04.049-.057c.055-.102-.026-.22-.099-.243-.11-.032-.168.062-.19.135l-.012.053.251.112z"/><path id="_340442968" class="fil15" d="m2.897 3.626.007-.018.017-.037a.103.103 0 0 1 .006-.009l.006-.008a.03.03 0 0 1 .015-.009.02.02 0 0 1 .007 0h.005a7.538 7.538 0 0 0 .001-.002l-.006-.002a.021.021 0 0 0-.008-.001.031.031 0 0 0-.02.009.071.071 0 0 0-.014.018.14.14 0 0 0-.014.04l-.002.019z"/><path id="_340442512" class="fil15" d="m2.959 3.663.008-.01a.13.13 0 0 0 .018-.043.06.06 0 0 0 0-.02v-.004l-.001-.003v.003l-.003.01a.333.333 0 0 1-.009.027l-.01.027a.161.161 0 0 0-.003.013z"/><path id="_340442368" class="fil15" d="m3.026 3.688.006-.009a.126.126 0 0 0 .015-.045v-.01l-.002.002-.003.007a.256.256 0 0 0-.005.01l-.004.012a.163.163 0 0 0-.005.022l-.002.011z"/><path id="_340442536" class="fil22" d="M2.844 3.644zm0 0a.034.034 0 0 0 0 0zm.009.004zm.006.001zm.028.002.007-.022-.007.022zm.084-.343s.185-.432.27-.563c-.085.13-.27.563-.27.563zm.271-.564zm.208-.086h.002-.002z"/><path id="_340442800" class="fil42" d="M2.844 3.644a.036.036 0 0 0 .015.005.034.034 0 0 0 .036-.022l-.001.002.003-.01.002-.012a.141.141 0 0 1 .014-.04l.007-.022-.006-.002c0 .005-.001.01-.004.014a.025.025 0 1 1-.037-.033l-.007-.003a.148.148 0 0 0-.015.028l-.003.007.001-.007.005-.02a.072.072 0 0 1 .006-.01l-.002-.001.001-.008-.03.095a.034.034 0 0 0 .015.038z"/><path id="_340442776" class="fil42" d="m2.887 3.651.049-.098-.003.001-.006.008a.103.103 0 0 0-.006.01 8.506 8.506 0 0 0-.025.054l.001-.007-.003.01-.007.022zm.026-.083v-.001a.097.097 0 0 1 .006-.01.17.17 0 0 0 .003-.01l-.002-.002-.007.023zm.014-.019z"/><path id="_340442920" d="m2.897 3.626.007-.018.017-.037a.103.103 0 0 1 .006-.009l.006-.008a.042.042 0 0 1 .003-.003l.005-.01a.034.034 0 0 0-.013.008h-.001a.097.097 0 0 0-.013.017l-.001.002a.141.141 0 0 0-.016.058z" style="fill:#bfbfbf"/><path id="_340442584" class="fil1" d="M3.98 2.334c.041-.058.096-.096.16-.1.039-.001.079.007.115.023a.232.232 0 0 1 .091.075c.04.055.056.132.031.227-.046.175-.2.318-.342.448-.128.119-.246.228-.277.35l.066.017c.026-.103.137-.206.257-.317.149-.137.31-.287.361-.48a.329.329 0 0 0-.04-.284.3.3 0 0 0-.119-.097.35.35 0 0 0-.155-.028c-.083.004-.193.081-.222.198l.075-.032z"/></g></g><path style="fill:none" d="M0 0h6.827v6.827H0z"/></g></svg>