<svg xmlns="http://www.w3.org/2000/svg" viewBox="0 0 512 512" style="enable-background:new 0 0 512 512" xml:space="preserve"><path style="fill:#1f1a78" d="M213.428 8.169h85.09v86.495h-85.09z"/><path style="fill:#495dd9" d="M129.754 157.053h252.492v184.886H129.754z"/><path style="fill:#5d8ae1" d="M210.106 228.57h91.735v102.487h-91.735z"/><path style="fill:#db412c" d="M109.492 461.617h293.017v16.34H109.492zM76.811 495.66h358.378V512H76.811z"/><path style="fill:#c92810" d="m156.746 412.343-85.709 85.709a8.17 8.17 0 0 0 11.554 11.555l85.709-85.71-11.554-11.554zM440.963 498.052l-85.71-85.71-11.554 11.555 85.71 85.71c1.595 1.595 3.686 2.392 5.777 2.392s4.182-.797 5.777-2.392a8.168 8.168 0 0 0 0-11.555z"/><path style="fill:#48449e" d="M405.178 320.156H106.823L95.357 420.982 256 443.916l160.644-22.934z"/><path style="fill:#1f1a78" d="m322.503 320.592 4.24 79.483a8.17 8.17 0 0 0 8.594 7.724 8.171 8.171 0 0 0 7.724-8.594l-4.217-79.048h-16.342c0 .145-.007.287.001.435zM264.159 410.902l-.012-90.746h-16.34l.012 90.748a8.169 8.169 0 0 0 8.171 8.169 8.17 8.17 0 0 0 8.169-8.171zM173.109 320.156l-4.754 78.907a8.17 8.17 0 0 0 8.163 8.662 8.169 8.169 0 0 0 8.147-7.679l4.784-79.398c.01-.166.004-.328.004-.491h-16.345v-.001z"/><circle style="fill:#48449e" cx="255.979" cy="157.053" r="94.295"/><circle style="fill:#495dd9" cx="255.979" cy="157.053" r="36.965"/><circle style="fill:#ffd83d" cx="129.754" cy="251.359" r="26.442"/><circle style="fill:#ffd83d" cx="382.246" cy="251.359" r="26.442"/><path d="m440.963 498.052-32.678-32.678-.005-.005-30.575-30.575 40.095-5.725a8.169 8.169 0 0 0 6.963-9.011l-11.467-100.826a8.17 8.17 0 0 0-8.118-7.246h-14.764v-27.003c15.154-3.682 26.442-17.358 26.442-33.629s-11.288-29.947-26.442-33.629v-60.671a8.17 8.17 0 0 0-8.17-8.17h-24.122c-2.744-34.62-22.769-64.45-51.427-80.843V8.17a8.17 8.17 0 0 0-8.17-8.17H213.43a8.17 8.17 0 0 0-8.17 8.17v59.871c-28.658 16.393-48.682 46.223-51.427 80.843h-24.075a8.17 8.17 0 0 0-8.17 8.17v60.671c-15.154 3.682-26.442 17.358-26.442 33.629 0 16.271 11.288 29.947 26.442 33.629v27.003h-14.765a8.17 8.17 0 0 0-8.118 7.246L87.239 420.058a8.17 8.17 0 0 0 6.963 9.011l40.094 5.724-30.577 30.578-.001.001-32.681 32.68A8.17 8.17 0 0 0 76.813 512h358.373a8.17 8.17 0 0 0 5.777-13.948zm-40.448-246.698c0 10.074-8.196 18.271-18.272 18.271s-18.272-8.196-18.272-18.271 8.196-18.271 18.272-18.271 18.272 8.196 18.272 18.271zm-26.442-33.629c-15.154 3.682-26.442 17.358-26.442 33.629s11.288 29.947 26.442 33.629v27.003h-64.058v-67.908c26.875-16.749 45.469-45.589 48.106-78.855h15.952v52.502zM218.28 311.987V252.34c11.674 4.635 24.393 7.185 37.697 7.185s26.024-2.55 37.698-7.185v59.647H218.28zm3.319-295.647h68.755v44.182a102.009 102.009 0 0 0-34.378-5.939 102.018 102.018 0 0 0-34.378 5.939V16.34h.001zm34.378 54.584c47.492 0 86.129 38.637 86.129 86.129s-38.637 86.129-86.129 86.129-86.129-38.637-86.129-86.129 38.637-86.129 86.129-86.129zm-144.491 180.43c0-10.074 8.196-18.271 18.272-18.271 10.076 0 18.271 8.196 18.271 18.271s-8.196 18.271-18.271 18.271-18.272-8.197-18.272-18.271zm26.442 33.628c15.154-3.682 26.441-17.358 26.441-33.629s-11.288-29.947-26.441-33.629v-52.501h15.905c2.637 33.266 21.232 62.106 48.106 78.855v67.908h-64.012v-27.004h.001zm-23.812 43.345h58.5l-4.263 70.737a8.17 8.17 0 0 0 8.163 8.662 8.169 8.169 0 0 0 8.147-7.679l4.322-71.719h58.821l.011 82.578a8.17 8.17 0 0 0 16.34-.002l-.011-82.576h58.767l3.827 71.748a8.17 8.17 0 0 0 8.594 7.724 8.171 8.171 0 0 0 7.724-8.594l-3.781-70.877h58.605l9.745 85.689L256 435.663l-151.629-21.647 9.745-85.689zm140.73 123.677a8.275 8.275 0 0 0 2.31 0l100.327-14.323 25.298 25.297H129.22l25.298-25.297 100.328 14.323zM96.54 495.66l16.34-16.34h286.241l16.34 16.34H96.54z"/><path d="M255.977 202.19c24.888 0 45.135-20.248 45.135-45.136s-20.247-45.136-45.136-45.136-45.136 20.248-45.136 45.136 20.249 45.136 45.137 45.136zm0-73.931c15.877 0 28.795 12.917 28.795 28.795s-12.917 28.795-28.795 28.795-28.795-12.917-28.795-28.795 12.917-28.795 28.795-28.795z"/></svg>